<?xml version="1.0" encoding="utf-8"?><svg version="1.1" id="Layer_1" xmlns="http://www.w3.org/2000/svg" xmlns:xlink="http://www.w3.org/1999/xlink" x="0px" y="0px" viewBox="0 0 107.04 122.88" style="enable-background:new 0 0 107.04 122.88" xml:space="preserve"><style type="text/css">.st0{fill-rule:evenodd;clip-rule:evenodd;}</style><g><path class="st0" d="M40.93,3.97c2.08-3.88,4.92-5.46,9.63-2.24l6.62,3.69c1.26,0.52,2.37,0.9,3.62,0.87 c9.28-4.37,20.56-4.36,30.18,1c15.36,8.55,20.62,27.48,11.75,42.29c-8.87,14.81-28.5,19.88-43.86,11.33 c-8.66-4.82-14.11-12.95-15.63-21.77l-0.03,0.05c0.01-0.05,0.01-0.1,0.01-0.14c-0.11-0.64-0.2-1.29-0.26-1.93 c-0.44-1.22-1.4-2.37-2.84-3.44l-8.36-4.65c-0.2-0.1-0.4-0.19-0.58-0.3l-5.52,4.86c-0.05,0.05-0.11,0.1-0.17,0.14 c-0.12,0.11-0.25,0.21-0.37,0.3l1.06,6.17c0.11,0.63,0.15,1.26,0.12,1.87c1.73,1.1,3.17,2.84,3.98,5.33l2.39-0.62 c3.24-0.56,4.95,0.81,5.52,3.63l2.5,8.99c0.7,1.62,1.6,2.81,2.71,3.53c0.63,0.23,1.25,0.48,1.87,0.74c0.05,0.01,0.1,0.02,0.15,0.02 l-0.06,0.01c8.45,3.7,15.18,10.87,17.77,20.19c4.59,16.52-5.58,33.49-22.7,37.92C23.3,126.24,5.69,116.44,1.1,99.92 c-2.87-10.34,0.04-20.86,6.81-28.36c0.35-1.16,0.26-2.29,0.07-3.6L6,60.84c-2.01-5.22,0.31-7.46,4.74-8.39 c-0.36-1.34-0.42-2.61-0.25-3.77c-1.64-1.36-2.81-3.26-3.19-5.47L5.24,31.12c-0.43-2.51,0.24-4.96,1.67-6.88 c1.2-1.61,2.92-2.85,4.98-3.46c0.25-0.27,0.51-0.54,0.8-0.79l9.38-8.26c0.07-0.06,0.14-0.12,0.21-0.17 c1.31-1.09,2.85-1.78,4.45-2.07C28.7,4.39,34.75,0.62,40.93,3.97L40.93,3.97z M20.99,40.6c-2.97,0-5.96,1.19-8.01,3.23 c-0.27-0.43-0.45-0.92-0.54-1.44l-2.01-11.74c0.39,0.82,0.9,1.6,1.56,2.31c0.09,0.1,0.18,0.2,0.29,0.28 c1.76,1.75,4.08,2.69,6.43,2.79c0.5,0.02,1,0.01,1.5-0.05L20.99,40.6L20.99,40.6z M27.76,76.25c-8.97,2.32-14.29,11.21-11.89,19.86 c2.4,8.65,11.62,13.78,20.6,11.47c8.97-2.32,14.29-11.21,11.89-19.86C45.96,79.06,36.73,73.93,27.76,76.25L27.76,76.25z M21.9,54.46c-2.49,0.64-3.96,3.11-3.3,5.51c0.46,1.64,1.8,2.83,3.4,3.2l1.83,6.59c0.33,1.18,1.59,1.88,2.81,1.57l0,0 c1.22-0.32,1.95-1.54,1.63-2.71l-1.85-6.65c1.12-1.1,1.63-2.73,1.19-4.33C26.94,55.24,24.39,53.82,21.9,54.46L21.9,54.46z M18.9,21.34c0.47,0.22,0.92,0.49,1.35,0.78c1.99,1.38,3.44,3.48,3.87,5.99l0,0.02l5.16-4.54c0.08-0.21,0.17-0.42,0.28-0.64 l1.24-2.06c-2.61-1.6-4.04-3.71-4.55-5.92c-0.19,0.11-0.38,0.24-0.55,0.38c-0.04,0.04-0.08,0.08-0.12,0.12L18.9,21.34L18.9,21.34z M19.35,31.02l-0.36-2.08c-0.19-1.14-0.86-2.1-1.77-2.73c-0.64-0.44-1.39-0.72-2.19-0.78c-0.14,0.39-0.22,0.8-0.24,1.21 c-0.05,1.07,0.32,2.16,1.13,3.02l-0.01,0.01l0.02,0.02c0.8,0.84,1.9,1.29,3.02,1.34C19.08,31.02,19.22,31.02,19.35,31.02 L19.35,31.02z M40.06,14.89c1.29-2.15,4.14-2.89,6.37-1.65c1.53,0.85,2.37,2.41,2.33,3.99l6.13,3.41c1.09,0.61,1.47,1.97,0.84,3.03 l0,0c-0.63,1.06-2.04,1.42-3.14,0.81l-6.19-3.44c-1.39,0.76-3.15,0.81-4.64-0.01C39.54,19.79,38.77,17.04,40.06,14.89L40.06,14.89z M60.36,25.99c4.64-7.76,14.93-10.41,22.97-5.94c8.04,4.48,10.8,14.39,6.15,22.15c-4.64,7.76-14.93,10.41-22.97,5.94 C58.48,43.66,55.72,33.75,60.36,25.99L60.36,25.99z"/></g></svg>